<svg width="1312" height="91" viewBox="0 0 1312 91" fill="none" xmlns="http://www.w3.org/2000/svg">
<rect width="1312" height="91" rx="45.5" fill="#7FB1C1"/>
<path d="M1220.03 42.6949C1233.88 36.1902 1251.8 28.2598 1254.27 27.1619C1260.76 24.2893 1262.75 24.8393 1261.76 31.2022C1261.05 35.7756 1258.99 50.9152 1257.35 60.3391C1256.38 65.9278 1254.19 66.5899 1250.76 64.1721C1249.11 63.0086 1240.78 57.1258 1238.97 55.7445C1237.32 54.4859 1235.05 52.9713 1237.9 49.9887C1238.92 48.9267 1245.58 42.1365 1250.76 36.8523C1251.44 36.1585 1250.59 35.0183 1249.81 35.5747C1242.81 40.5267 1233.12 47.3995 1231.88 48.2943C1230.02 49.646 1228.23 50.2658 1225.01 49.28C1222.59 48.5354 1220.21 47.647 1219.29 47.3085C1215.74 46.0054 1216.58 44.3174 1220.03 42.6949Z" fill="white"/>
<path d="M442.241 46.5366V48.8359H434.854V46.5366H442.241ZM435.6 40.8636V54.5H432.999V40.8636H435.6ZM444.096 40.8636V54.5H441.504V40.8636H444.096ZM450.366 54.8018C449.502 54.8018 448.72 54.642 448.022 54.3224C447.323 53.9969 446.77 53.5264 446.362 52.9109C445.959 52.2953 445.758 51.5407 445.758 50.647C445.758 49.8776 445.906 49.2443 446.202 48.7472C446.498 48.25 446.897 47.8564 447.4 47.5664C447.904 47.2764 448.466 47.0574 449.087 46.9094C449.709 46.7615 450.342 46.649 450.987 46.5721C451.804 46.4774 452.467 46.4004 452.976 46.3413C453.485 46.2762 453.855 46.1726 454.085 46.0305C454.316 45.8885 454.432 45.6577 454.432 45.3381V45.2759C454.432 44.5006 454.213 43.8999 453.775 43.4737C453.343 43.0476 452.698 42.8345 451.839 42.8345C450.946 42.8345 450.241 43.0328 449.726 43.4293C449.217 43.82 448.865 44.255 448.67 44.7344L446.175 44.1662C446.471 43.3376 446.903 42.6688 447.471 42.1598C448.046 41.6449 448.705 41.272 449.451 41.0412C450.197 40.8045 450.981 40.6861 451.804 40.6861C452.348 40.6861 452.925 40.7512 453.535 40.8814C454.151 41.0057 454.725 41.2365 455.257 41.5739C455.796 41.9112 456.237 42.3936 456.58 43.021C456.923 43.6424 457.095 44.4503 457.095 45.4446V54.5H454.503V52.6357H454.396C454.225 52.9789 453.967 53.3163 453.624 53.6477C453.281 53.9792 452.84 54.2544 452.301 54.4734C451.762 54.6924 451.117 54.8018 450.366 54.8018ZM450.943 52.6712C451.677 52.6712 452.304 52.5262 452.825 52.2362C453.352 51.9461 453.751 51.5674 454.023 51.0998C454.301 50.6263 454.441 50.1203 454.441 49.5817V47.8239C454.346 47.9186 454.162 48.0073 453.89 48.0902C453.624 48.1671 453.319 48.2352 452.976 48.2944C452.632 48.3477 452.298 48.398 451.973 48.4453C451.647 48.4867 451.375 48.5223 451.156 48.5518C450.641 48.617 450.17 48.7264 449.744 48.8803C449.324 49.0342 448.987 49.2562 448.732 49.5462C448.484 49.8303 448.359 50.209 448.359 50.6825C448.359 51.3395 448.602 51.8366 449.087 52.174C449.573 52.5054 450.191 52.6712 450.943 52.6712ZM461.982 50.7802L467.992 40.8636H470.851V54.5H468.25V44.5746L462.266 54.5H459.381V40.8636H461.982V50.7802ZM466.856 36.2472H469.04C469.04 37.2474 468.685 38.0612 467.974 38.6886C467.27 39.31 466.317 39.6207 465.116 39.6207C463.92 39.6207 462.97 39.31 462.266 38.6886C461.562 38.0612 461.209 37.2474 461.209 36.2472H463.385C463.385 36.6911 463.515 37.0846 463.775 37.4279C464.036 37.7653 464.482 37.9339 465.116 37.9339C465.737 37.9339 466.181 37.7653 466.447 37.4279C466.72 37.0906 466.856 36.697 466.856 36.2472ZM471.838 58.4329V52.2006H472.948C473.232 51.9402 473.472 51.6295 473.667 51.2685C473.868 50.9074 474.037 50.4783 474.173 49.9812C474.315 49.484 474.433 48.904 474.528 48.2411C474.623 47.5723 474.706 46.8088 474.777 45.9506L475.203 40.8636H484.471V52.2006H486.566V58.4329H483.974V54.5H474.466V58.4329H471.838ZM475.789 52.2006H481.879V43.1364H477.582L477.298 45.9506C477.162 47.3829 476.99 48.6258 476.783 49.6793C476.576 50.7269 476.244 51.5674 475.789 52.2006ZM490.512 50.7802L496.522 40.8636H499.381V54.5H496.78V44.5746L490.796 54.5H487.911V40.8636H490.512V50.7802ZM512.943 54.7752C511.6 54.7752 510.443 54.4882 509.472 53.9141C508.507 53.334 507.762 52.5202 507.235 51.4727C506.714 50.4192 506.454 49.1851 506.454 47.7706C506.454 46.3738 506.714 45.1428 507.235 44.0774C507.762 43.0121 508.496 42.1805 509.437 41.5827C510.384 40.985 511.49 40.6861 512.757 40.6861C513.526 40.6861 514.272 40.8133 514.994 41.0678C515.716 41.3223 516.364 41.7218 516.938 42.2663C517.512 42.8108 517.965 43.5181 518.297 44.3881C518.628 45.2522 518.794 46.3028 518.794 47.5398V48.4808H507.954V46.4922H516.193C516.193 45.7938 516.051 45.1753 515.766 44.6367C515.482 44.0922 515.083 43.6631 514.568 43.3494C514.059 43.0357 513.461 42.8789 512.775 42.8789C512.029 42.8789 511.378 43.0624 510.822 43.4293C510.271 43.7904 509.845 44.2638 509.543 44.8498C509.247 45.4298 509.099 46.0601 509.099 46.7408V48.2944C509.099 49.2058 509.259 49.9812 509.579 50.6204C509.904 51.2596 510.357 51.7479 510.937 52.0852C511.517 52.4167 512.195 52.5824 512.97 52.5824C513.473 52.5824 513.932 52.5114 514.346 52.3693C514.76 52.2214 515.118 52.0024 515.42 51.7124C515.722 51.4223 515.953 51.0643 516.113 50.6381L518.625 51.0909C518.424 51.8307 518.063 52.4788 517.542 53.0352C517.027 53.5856 516.379 54.0147 515.598 54.3224C514.822 54.6243 513.938 54.7752 512.943 54.7752ZM519.157 58.4329V52.2006H520.267C520.551 51.9402 520.791 51.6295 520.986 51.2685C521.187 50.9074 521.356 50.4783 521.492 49.9812C521.634 49.484 521.753 48.904 521.847 48.2411C521.942 47.5723 522.025 46.8088 522.096 45.9506L522.522 40.8636H531.791V52.2006H533.886V58.4329H531.293V54.5H521.785V58.4329H519.157ZM523.108 52.2006H529.198V43.1364H524.901L524.617 45.9506C524.481 47.3829 524.309 48.6258 524.102 49.6793C523.895 50.7269 523.564 51.5674 523.108 52.2006ZM537.831 50.7802L543.842 40.8636H546.7V54.5H544.099V44.5746L538.116 54.5H535.23V40.8636H537.831V50.7802ZM558.261 46.5366V48.8359H550.875V46.5366H558.261ZM551.621 40.8636V54.5H549.019V40.8636H551.621ZM560.117 40.8636V54.5H557.524V40.8636H560.117ZM568.162 54.7752C566.883 54.7752 565.768 54.4822 564.815 53.8963C563.862 53.3104 563.122 52.4906 562.595 51.4371C562.069 50.3836 561.805 49.1526 561.805 47.744C561.805 46.3294 562.069 45.0924 562.595 44.033C563.122 42.9736 563.862 42.1509 564.815 41.565C565.768 40.979 566.883 40.6861 568.162 40.6861C569.44 40.6861 570.556 40.979 571.509 41.565C572.462 42.1509 573.201 42.9736 573.728 44.033C574.255 45.0924 574.518 46.3294 574.518 47.744C574.518 49.1526 574.255 50.3836 573.728 51.4371C573.201 52.4906 572.462 53.3104 571.509 53.8963C570.556 54.4822 569.44 54.7752 568.162 54.7752ZM568.171 52.5469C568.999 52.5469 569.686 52.3279 570.23 51.8899C570.775 51.4519 571.177 50.869 571.438 50.141C571.704 49.413 571.837 48.611 571.837 47.7351C571.837 46.8651 571.704 46.0661 571.438 45.3381C571.177 44.6042 570.775 44.0153 570.23 43.5714C569.686 43.1275 568.999 42.9055 568.171 42.9055C567.336 42.9055 566.644 43.1275 566.093 43.5714C565.549 44.0153 565.143 44.6042 564.877 45.3381C564.616 46.0661 564.486 46.8651 564.486 47.7351C564.486 48.611 564.616 49.413 564.877 50.141C565.143 50.869 565.549 51.4519 566.093 51.8899C566.644 52.3279 567.336 52.5469 568.171 52.5469ZM583.884 51.2152L588.287 40.8636H590.578L584.869 54.5H582.898L577.305 40.8636H579.569L583.884 51.2152ZM578.832 40.8636V54.5H576.231V40.8636H578.832ZM589.006 54.5V40.8636H591.59V54.5H589.006ZM595.875 45.5511H599.835C601.504 45.5511 602.788 45.9654 603.688 46.794C604.587 47.6226 605.037 48.6909 605.037 49.9989C605.037 50.8512 604.836 51.6177 604.433 52.2983C604.031 52.9789 603.442 53.5175 602.667 53.9141C601.891 54.3047 600.947 54.5 599.835 54.5H593.878V40.8636H596.479V52.2095H599.835C600.598 52.2095 601.226 52.0112 601.717 51.6147C602.208 51.2122 602.454 50.7003 602.454 50.0788C602.454 49.4219 602.208 48.8862 601.717 48.4719C601.226 48.0517 600.598 47.8416 599.835 47.8416H595.875V45.5511ZM606.973 54.5V40.8636H609.627V54.5H606.973ZM611.939 40.8636H614.54V52.2006H619.255V40.8636H621.856V52.2006H626.57V40.8636H629.171V54.5H611.939V40.8636ZM630.391 54.5L630.383 52.2006H630.871C631.25 52.2006 631.566 52.1207 631.821 51.9609C632.081 51.7952 632.294 51.517 632.46 51.1264C632.626 50.7358 632.753 50.1972 632.842 49.5107C632.93 48.8182 632.996 47.9482 633.037 46.9006L633.277 40.8636H642.794V54.5H640.193V43.1541H635.736L635.523 47.7884C635.47 48.9129 635.354 49.8954 635.177 50.7358C635.005 51.5762 634.753 52.2776 634.422 52.8398C634.09 53.3962 633.664 53.8134 633.144 54.0916C632.623 54.3639 631.989 54.5 631.244 54.5H630.391ZM650.961 54.7752C649.617 54.7752 648.46 54.4882 647.49 53.9141C646.525 53.334 645.779 52.5202 645.252 51.4727C644.732 50.4192 644.471 49.1851 644.471 47.7706C644.471 46.3738 644.732 45.1428 645.252 44.0774C645.779 43.0121 646.513 42.1805 647.454 41.5827C648.401 40.985 649.508 40.6861 650.774 40.6861C651.544 40.6861 652.29 40.8133 653.012 41.0678C653.734 41.3223 654.382 41.7218 654.956 42.2663C655.53 42.8108 655.983 43.5181 656.314 44.3881C656.646 45.2522 656.811 46.3028 656.811 47.5398V48.4808H645.972V46.4922H654.21C654.21 45.7938 654.068 45.1753 653.784 44.6367C653.5 44.0922 653.1 43.6631 652.586 43.3494C652.077 43.0357 651.479 42.8789 650.792 42.8789C650.046 42.8789 649.395 43.0624 648.839 43.4293C648.289 43.7904 647.863 44.2638 647.561 44.8498C647.265 45.4298 647.117 46.0601 647.117 46.7408V48.2944C647.117 49.2058 647.277 49.9812 647.596 50.6204C647.922 51.2596 648.374 51.7479 648.955 52.0852C649.535 52.4167 650.212 52.5824 650.988 52.5824C651.491 52.5824 651.949 52.5114 652.364 52.3693C652.778 52.2214 653.136 52.0024 653.438 51.7124C653.74 51.4223 653.97 51.0643 654.13 50.6381L656.643 51.0909C656.441 51.8307 656.08 52.4788 655.56 53.0352C655.045 53.5856 654.397 54.0147 653.615 54.3224C652.84 54.6243 651.955 54.7752 650.961 54.7752ZM667.748 46.5366V48.8359H660.362V46.5366H667.748ZM661.108 40.8636V54.5H658.507V40.8636H661.108ZM669.604 40.8636V54.5H667.012V40.8636H669.604ZM681.147 46.5366V48.8359H673.761V46.5366H681.147ZM674.506 40.8636V54.5H671.905V40.8636H674.506ZM683.002 40.8636V54.5H680.41V40.8636H683.002ZM687.905 50.7802L693.915 40.8636H696.774V54.5H694.172V44.5746L688.189 54.5H685.303V40.8636H687.905V50.7802ZM699.093 54.5V40.8636H701.747V46.581H703.025L707.527 40.8636H710.811L705.529 47.4954L710.873 54.5H707.58L703.469 49.049H701.747V54.5H699.093ZM716.868 54.7752C715.589 54.7752 714.474 54.4822 713.521 53.8963C712.568 53.3104 711.828 52.4906 711.301 51.4371C710.775 50.3836 710.511 49.1526 710.511 47.744C710.511 46.3294 710.775 45.0924 711.301 44.033C711.828 42.9736 712.568 42.1509 713.521 41.565C714.474 40.979 715.589 40.6861 716.868 40.6861C718.146 40.6861 719.262 40.979 720.215 41.565C721.168 42.1509 721.907 42.9736 722.434 44.033C722.961 45.0924 723.224 46.3294 723.224 47.744C723.224 49.1526 722.961 50.3836 722.434 51.4371C721.907 52.4906 721.168 53.3104 720.215 53.8963C719.262 54.4822 718.146 54.7752 716.868 54.7752ZM716.877 52.5469C717.705 52.5469 718.392 52.3279 718.936 51.8899C719.481 51.4519 719.883 50.869 720.144 50.141C720.41 49.413 720.543 48.611 720.543 47.7351C720.543 46.8651 720.41 46.0661 720.144 45.3381C719.883 44.6042 719.481 44.0153 718.936 43.5714C718.392 43.1275 717.705 42.9055 716.877 42.9055C716.042 42.9055 715.35 43.1275 714.799 43.5714C714.255 44.0153 713.849 44.6042 713.583 45.3381C713.323 46.0661 713.192 46.8651 713.192 47.7351C713.192 48.611 713.323 49.413 713.583 50.141C713.849 50.869 714.255 51.4519 714.799 51.8899C715.35 52.3279 716.042 52.5469 716.877 52.5469ZM724.937 54.5V40.8636H730.592C732.131 40.8636 733.351 41.1921 734.25 41.8491C735.15 42.5001 735.6 43.3849 735.6 44.5036C735.6 45.3026 735.345 45.9358 734.836 46.4034C734.327 46.871 733.652 47.1847 732.812 47.3445C733.422 47.4155 733.981 47.599 734.49 47.8949C734.999 48.1849 735.407 48.5755 735.715 49.0668C736.029 49.558 736.186 50.1439 736.186 50.8246C736.186 51.5466 735.999 52.1858 735.626 52.7422C735.253 53.2926 734.712 53.7247 734.002 54.0384C733.297 54.3461 732.448 54.5 731.454 54.5H724.937ZM727.432 52.2805H731.454C732.111 52.2805 732.625 52.1237 732.998 51.81C733.371 51.4963 733.558 51.0702 733.558 50.5316C733.558 49.8983 733.371 49.4012 732.998 49.0401C732.625 48.6732 732.111 48.4897 731.454 48.4897H727.432V52.2805ZM727.432 46.5455H730.619C731.116 46.5455 731.542 46.4744 731.898 46.3324C732.259 46.1903 732.534 45.9891 732.723 45.7287C732.918 45.4624 733.016 45.1487 733.016 44.7876C733.016 44.2609 732.8 43.8496 732.368 43.5536C731.936 43.2577 731.344 43.1097 730.592 43.1097H727.432V46.5455ZM748.958 54.7752C747.638 54.7752 746.501 54.4763 745.549 53.8786C744.602 53.2749 743.874 52.4433 743.365 51.3839C742.856 50.3245 742.601 49.1112 742.601 47.744C742.601 46.359 742.861 45.1368 743.382 44.0774C743.903 43.0121 744.637 42.1805 745.584 41.5827C746.531 40.985 747.647 40.6861 748.931 40.6861C749.967 40.6861 750.89 40.8784 751.701 41.2631C752.512 41.6419 753.166 42.1746 753.663 42.8612C754.166 43.5477 754.465 44.3497 754.56 45.267H751.976C751.834 44.6278 751.509 44.0774 751 43.6158C750.496 43.1541 749.822 42.9233 748.975 42.9233C748.236 42.9233 747.587 43.1186 747.031 43.5092C746.481 43.8939 746.052 44.4444 745.744 45.1605C745.436 45.8707 745.282 46.7112 745.282 47.6818C745.282 48.6761 745.433 49.5343 745.735 50.2564C746.037 50.9785 746.463 51.5378 747.013 51.9343C747.57 52.3308 748.224 52.5291 748.975 52.5291C749.478 52.5291 749.934 52.4374 750.343 52.2539C750.757 52.0645 751.103 51.7952 751.381 51.446C751.665 51.0968 751.864 50.6766 751.976 50.1854H754.56C754.465 51.0672 754.178 51.8544 753.698 52.5469C753.219 53.2393 752.577 53.7839 751.772 54.1804C750.973 54.5769 750.035 54.7752 748.958 54.7752ZM761.514 54.5V40.8636H764.062V43.0831H764.231C764.515 42.3314 764.98 41.7455 765.625 41.3253C766.27 40.8991 767.042 40.6861 767.942 40.6861C768.853 40.6861 769.617 40.8991 770.232 41.3253C770.854 41.7514 771.313 42.3374 771.609 43.0831H771.751C772.076 42.3551 772.594 41.7751 773.304 41.343C774.014 40.9051 774.861 40.6861 775.843 40.6861C777.08 40.6861 778.089 41.0737 778.871 41.8491C779.658 42.6244 780.051 43.7933 780.051 45.3558V54.5H777.397V45.6044C777.397 44.6811 777.145 44.0123 776.642 43.598C776.139 43.1837 775.538 42.9766 774.84 42.9766C773.976 42.9766 773.304 43.2429 772.825 43.7756C772.345 44.3023 772.106 44.98 772.106 45.8086V54.5H769.46V45.4357C769.46 44.6959 769.229 44.1011 768.768 43.6513C768.306 43.2015 767.705 42.9766 766.965 42.9766C766.462 42.9766 765.998 43.1097 765.572 43.3761C765.151 43.6365 764.811 44.0005 764.551 44.468C764.296 44.9356 764.169 45.4772 764.169 46.0927V54.5H761.514ZM786.328 54.8018C785.463 54.8018 784.682 54.642 783.984 54.3224C783.285 53.9969 782.732 53.5264 782.324 52.9109C781.921 52.2953 781.72 51.5407 781.72 50.647C781.72 49.8776 781.868 49.2443 782.164 48.7472C782.46 48.25 782.859 47.8564 783.362 47.5664C783.865 47.2764 784.428 47.0574 785.049 46.9094C785.671 46.7615 786.304 46.649 786.949 46.5721C787.766 46.4774 788.429 46.4004 788.938 46.3413C789.447 46.2762 789.817 46.1726 790.047 46.0305C790.278 45.8885 790.394 45.6577 790.394 45.3381V45.2759C790.394 44.5006 790.175 43.8999 789.737 43.4737C789.305 43.0476 788.659 42.8345 787.801 42.8345C786.908 42.8345 786.203 43.0328 785.688 43.4293C785.179 43.82 784.827 44.255 784.632 44.7344L782.137 44.1662C782.433 43.3376 782.865 42.6688 783.433 42.1598C784.007 41.6449 784.667 41.272 785.413 41.0412C786.159 40.8045 786.943 40.6861 787.766 40.6861C788.31 40.6861 788.887 40.7512 789.497 40.8814C790.112 41.0057 790.687 41.2365 791.219 41.5739C791.758 41.9112 792.199 42.3936 792.542 43.021C792.885 43.6424 793.057 44.4503 793.057 45.4446V54.5H790.465V52.6357H790.358C790.186 52.9789 789.929 53.3163 789.586 53.6477C789.242 53.9792 788.802 54.2544 788.263 54.4734C787.724 54.6924 787.079 54.8018 786.328 54.8018ZM786.905 52.6712C787.639 52.6712 788.266 52.5262 788.787 52.2362C789.313 51.9461 789.713 51.5674 789.985 51.0998C790.263 50.6263 790.402 50.1203 790.402 49.5817V47.8239C790.308 47.9186 790.124 48.0073 789.852 48.0902C789.586 48.1671 789.281 48.2352 788.938 48.2944C788.594 48.3477 788.26 48.398 787.934 48.4453C787.609 48.4867 787.337 48.5223 787.118 48.5518C786.603 48.617 786.132 48.7264 785.706 48.8803C785.286 49.0342 784.949 49.2562 784.694 49.5462C784.445 49.8303 784.321 50.209 784.321 50.6825C784.321 51.3395 784.564 51.8366 785.049 52.174C785.534 52.5054 786.153 52.6712 786.905 52.6712ZM797.784 49.8746L797.766 46.6342H798.228L803.661 40.8636H806.839L800.643 47.4332H800.225L797.784 49.8746ZM795.343 54.5V36.3182H797.997V54.5H795.343ZM803.954 54.5L799.071 48.0192L800.9 46.1637L807.212 54.5H803.954ZM813.324 54.7752C811.981 54.7752 810.824 54.4882 809.853 53.9141C808.888 53.334 808.142 52.5202 807.616 51.4727C807.095 50.4192 806.834 49.1851 806.834 47.7706C806.834 46.3738 807.095 45.1428 807.616 44.0774C808.142 43.0121 808.876 42.1805 809.817 41.5827C810.764 40.985 811.871 40.6861 813.138 40.6861C813.907 40.6861 814.653 40.8133 815.375 41.0678C816.097 41.3223 816.745 41.7218 817.319 42.2663C817.893 42.8108 818.346 43.5181 818.678 44.3881C819.009 45.2522 819.175 46.3028 819.175 47.5398V48.4808H808.335V46.4922H816.573C816.573 45.7938 816.431 45.1753 816.147 44.6367C815.863 44.0922 815.464 43.6631 814.949 43.3494C814.44 43.0357 813.842 42.8789 813.155 42.8789C812.41 42.8789 811.759 43.0624 811.202 43.4293C810.652 43.7904 810.226 44.2638 809.924 44.8498C809.628 45.4298 809.48 46.0601 809.48 46.7408V48.2944C809.48 49.2058 809.64 49.9812 809.959 50.6204C810.285 51.2596 810.738 51.7479 811.318 52.0852C811.898 52.4167 812.575 52.5824 813.351 52.5824C813.854 52.5824 814.313 52.5114 814.727 52.3693C815.141 52.2214 815.499 52.0024 815.801 51.7124C816.103 51.4223 816.334 51.0643 816.494 50.6381L819.006 51.0909C818.805 51.8307 818.444 52.4788 817.923 53.0352C817.408 53.5856 816.76 54.0147 815.979 54.3224C815.203 54.6243 814.318 54.7752 813.324 54.7752ZM826.449 36.3182H829.778L835.567 50.4517H835.78L841.568 36.3182H844.897V54.5H842.287V41.343H842.119L836.756 54.4734H834.59L829.228 41.3342H829.059V54.5H826.449V36.3182ZM853.3 54.7752C851.956 54.7752 850.799 54.4882 849.829 53.9141C848.864 53.334 848.118 52.5202 847.591 51.4727C847.07 50.4192 846.81 49.1851 846.81 47.7706C846.81 46.3738 847.07 45.1428 847.591 44.0774C848.118 43.0121 848.852 42.1805 849.793 41.5827C850.74 40.985 851.847 40.6861 853.113 40.6861C853.883 40.6861 854.628 40.8133 855.351 41.0678C856.073 41.3223 856.721 41.7218 857.295 42.2663C857.869 42.8108 858.322 43.5181 858.653 44.3881C858.985 45.2522 859.15 46.3028 859.15 47.5398V48.4808H848.31V46.4922H856.549C856.549 45.7938 856.407 45.1753 856.123 44.6367C855.839 44.0922 855.439 43.6631 854.924 43.3494C854.415 43.0357 853.818 42.8789 853.131 42.8789C852.385 42.8789 851.734 43.0624 851.178 43.4293C850.628 43.7904 850.201 44.2638 849.9 44.8498C849.604 45.4298 849.456 46.0601 849.456 46.7408V48.2944C849.456 49.2058 849.615 49.9812 849.935 50.6204C850.261 51.2596 850.713 51.7479 851.293 52.0852C851.873 52.4167 852.551 52.5824 853.326 52.5824C853.829 52.5824 854.288 52.5114 854.702 52.3693C855.117 52.2214 855.475 52.0024 855.777 51.7124C856.079 51.4223 856.309 51.0643 856.469 50.6381L858.982 51.0909C858.78 51.8307 858.419 52.4788 857.898 53.0352C857.384 53.5856 856.735 54.0147 855.954 54.3224C855.179 54.6243 854.294 54.7752 853.3 54.7752ZM866.723 54.7752C865.379 54.7752 864.222 54.4882 863.251 53.9141C862.287 53.334 861.541 52.5202 861.014 51.4727C860.493 50.4192 860.233 49.1851 860.233 47.7706C860.233 46.3738 860.493 45.1428 861.014 44.0774C861.541 43.0121 862.275 42.1805 863.216 41.5827C864.163 40.985 865.27 40.6861 866.536 40.6861C867.306 40.6861 868.051 40.8133 868.773 41.0678C869.495 41.3223 870.144 41.7218 870.718 42.2663C871.292 42.8108 871.745 43.5181 872.076 44.3881C872.407 45.2522 872.573 46.3028 872.573 47.5398V48.4808H861.733V46.4922H869.972C869.972 45.7938 869.83 45.1753 869.546 44.6367C869.262 44.0922 868.862 43.6631 868.347 43.3494C867.838 43.0357 867.24 42.8789 866.554 42.8789C865.808 42.8789 865.157 43.0624 864.601 43.4293C864.05 43.7904 863.624 44.2638 863.322 44.8498C863.026 45.4298 862.879 46.0601 862.879 46.7408V48.2944C862.879 49.2058 863.038 49.9812 863.358 50.6204C863.683 51.2596 864.136 51.7479 864.716 52.0852C865.296 52.4167 865.974 52.5824 866.749 52.5824C867.252 52.5824 867.711 52.5114 868.125 52.3693C868.54 52.2214 868.898 52.0024 869.2 51.7124C869.501 51.4223 869.732 51.0643 869.892 50.6381L872.404 51.0909C872.203 51.8307 871.842 52.4788 871.321 53.0352C870.806 53.5856 870.158 54.0147 869.377 54.3224C868.602 54.6243 867.717 54.7752 866.723 54.7752ZM880.634 40.8636V42.9943H873.185V40.8636H880.634ZM875.183 37.5966H877.837V50.4961C877.837 51.011 877.914 51.3987 878.068 51.6591C878.222 51.9136 878.42 52.0882 878.663 52.1829C878.911 52.2717 879.181 52.3161 879.471 52.3161C879.684 52.3161 879.87 52.3013 880.03 52.2717C880.19 52.2421 880.314 52.2184 880.403 52.2006L880.882 54.3935C880.728 54.4527 880.509 54.5118 880.225 54.571C879.941 54.6361 879.586 54.6716 879.16 54.6776C878.462 54.6894 877.811 54.5651 877.207 54.3047C876.603 54.0443 876.115 53.6418 875.742 53.0973C875.369 52.5528 875.183 51.8692 875.183 51.0465V37.5966Z" fill="white"/>
<path d="M84.8452 24.4897C87.6482 24.49 89.9204 26.7629 89.9204 29.5659C89.9204 29.5924 89.9199 29.6185 89.9194 29.644L89.9351 29.8452C90.1494 31.9055 91.7774 33.4983 93.8647 33.5903L93.8638 33.5903C94.0528 33.5907 94.2372 33.6051 94.4175 33.6245L94.4214 33.6255C96.6594 33.9037 98.3911 35.8122 98.3911 38.1255L98.3911 55.8892C98.3909 58.3934 96.3612 60.4233 93.8569 60.4233C91.3526 60.4233 89.322 58.3934 89.3218 55.8892L89.3218 38.4771L89.3149 38.2788C89.1894 36.2498 87.5344 34.6411 85.48 34.6411L84.2095 34.6411C82.0713 34.6411 80.3677 36.3752 80.3677 38.519L80.3677 55.8892C80.3675 58.3934 78.3368 60.4233 75.8325 60.4233C73.3283 60.4233 71.2985 58.3934 71.2983 55.8892L71.2983 38.5151L71.2974 38.4634C71.2709 36.3435 69.5765 34.6411 67.4546 34.6411L66.1841 34.6411C64.1398 34.6411 62.482 36.2217 62.3384 38.231L62.3384 55.8892C62.3382 58.3934 60.3075 60.4233 57.8032 60.4233C55.2991 60.4231 53.2692 58.3933 53.269 55.8892L53.269 38.1255C53.269 35.8111 55.0031 33.9013 57.2427 33.6245L57.2456 33.6245C57.4251 33.6051 57.6088 33.5907 57.7964 33.5903L57.9976 33.5776C60.0614 33.3923 61.6297 31.7287 61.7456 29.6304C61.7453 29.6091 61.7446 29.5876 61.7446 29.5659C61.7446 26.7627 64.0176 24.4897 66.8208 24.4897C69.6239 24.4899 71.896 26.7628 71.896 29.5659C71.8963 31.6742 73.7573 33.4661 75.8315 33.6079C77.9049 33.4667 79.7688 31.6744 79.769 29.5659C79.769 26.7627 82.042 24.4897 84.8452 24.4897Z" fill="url(#paint0_radial_66_28)"/>
<path d="M84.8452 24.4897C87.6482 24.49 89.9204 26.7629 89.9204 29.5659C89.9204 29.5924 89.9199 29.6185 89.9194 29.644L89.9351 29.8452C90.1494 31.9055 91.7774 33.4983 93.8647 33.5903L93.8638 33.5903C94.0528 33.5907 94.2372 33.6051 94.4175 33.6245L94.4214 33.6255C96.6594 33.9037 98.3911 35.8122 98.3911 38.1255L98.3911 55.8892C98.3909 58.3934 96.3612 60.4233 93.8569 60.4233C91.3526 60.4233 89.322 58.3934 89.3218 55.8892L89.3218 38.4771L89.3149 38.2788C89.1894 36.2498 87.5344 34.6411 85.48 34.6411L84.2095 34.6411C82.0713 34.6411 80.3677 36.3752 80.3677 38.519L80.3677 55.8892C80.3675 58.3934 78.3368 60.4233 75.8325 60.4233C73.3283 60.4233 71.2985 58.3934 71.2983 55.8892L71.2983 38.5151L71.2974 38.4634C71.2709 36.3435 69.5765 34.6411 67.4546 34.6411L66.1841 34.6411C64.1398 34.6411 62.482 36.2217 62.3384 38.231L62.3384 55.8892C62.3382 58.3934 60.3075 60.4233 57.8032 60.4233C55.2991 60.4231 53.2692 58.3933 53.269 55.8892L53.269 38.1255C53.269 35.8111 55.0031 33.9013 57.2427 33.6245L57.2456 33.6245C57.4251 33.6051 57.6088 33.5907 57.7964 33.5903L57.9976 33.5776C60.0614 33.3923 61.6297 31.7287 61.7456 29.6304C61.7453 29.6091 61.7446 29.5876 61.7446 29.5659C61.7446 26.7627 64.0176 24.4897 66.8208 24.4897C69.6239 24.4899 71.896 26.7628 71.896 29.5659C71.8963 31.6742 73.7573 33.4661 75.8315 33.6079C77.9049 33.4667 79.7688 31.6744 79.769 29.5659C79.769 26.7627 82.042 24.4897 84.8452 24.4897Z" fill="url(#paint1_linear_66_28)"/>
<path d="M84.8452 24.4897C87.6482 24.49 89.9204 26.7629 89.9204 29.5659C89.9204 29.5924 89.9199 29.6185 89.9194 29.644L89.9351 29.8452C90.1494 31.9055 91.7774 33.4983 93.8647 33.5903L93.8638 33.5903C94.0528 33.5907 94.2372 33.6051 94.4175 33.6245L94.4214 33.6255C96.6594 33.9037 98.3911 35.8122 98.3911 38.1255L98.3911 55.8892C98.3909 58.3934 96.3612 60.4233 93.8569 60.4233C91.3526 60.4233 89.322 58.3934 89.3218 55.8892L89.3218 38.4771L89.3149 38.2788C89.1894 36.2498 87.5344 34.6411 85.48 34.6411L84.2095 34.6411C82.0713 34.6411 80.3677 36.3752 80.3677 38.519L80.3677 55.8892C80.3675 58.3934 78.3368 60.4233 75.8325 60.4233C73.3283 60.4233 71.2985 58.3934 71.2983 55.8892L71.2983 38.5151L71.2974 38.4634C71.2709 36.3435 69.5765 34.6411 67.4546 34.6411L66.1841 34.6411C64.1398 34.6411 62.482 36.2217 62.3384 38.231L62.3384 55.8892C62.3382 58.3934 60.3075 60.4233 57.8032 60.4233C55.2991 60.4231 53.2692 58.3933 53.269 55.8892L53.269 38.1255C53.269 35.8111 55.0031 33.9013 57.2427 33.6245L57.2456 33.6245C57.4251 33.6051 57.6088 33.5907 57.7964 33.5903L57.9976 33.5776C60.0614 33.3923 61.6297 31.7287 61.7456 29.6304C61.7453 29.6091 61.7446 29.5876 61.7446 29.5659C61.7446 26.7627 64.0176 24.4897 66.8208 24.4897C69.6239 24.4899 71.896 26.7628 71.896 29.5659C71.8963 31.6742 73.7573 33.4661 75.8315 33.6079C77.9049 33.4667 79.7688 31.6744 79.769 29.5659C79.769 26.7627 82.042 24.4897 84.8452 24.4897Z" fill="white" fill-opacity="0.2"/>
<path d="M84.8452 24.4897C87.6482 24.49 89.9204 26.7629 89.9204 29.5659C89.9204 29.5924 89.9199 29.6185 89.9194 29.644L89.9351 29.8452C90.1494 31.9055 91.7774 33.4983 93.8647 33.5903L93.8638 33.5903C94.0528 33.5907 94.2372 33.6051 94.4175 33.6245L94.4214 33.6255C96.6594 33.9037 98.3911 35.8122 98.3911 38.1255L98.3911 55.8892C98.3909 58.3934 96.3612 60.4233 93.8569 60.4233C91.3526 60.4233 89.322 58.3934 89.3218 55.8892L89.3218 38.4771L89.3149 38.2788C89.1894 36.2498 87.5344 34.6411 85.48 34.6411L84.2095 34.6411C82.0713 34.6411 80.3677 36.3752 80.3677 38.519L80.3677 55.8892C80.3675 58.3934 78.3368 60.4233 75.8325 60.4233C73.3283 60.4233 71.2985 58.3934 71.2983 55.8892L71.2983 38.5151L71.2974 38.4634C71.2709 36.3435 69.5765 34.6411 67.4546 34.6411L66.1841 34.6411C64.1398 34.6411 62.482 36.2217 62.3384 38.231L62.3384 55.8892C62.3382 58.3934 60.3075 60.4233 57.8032 60.4233C55.2991 60.4231 53.2692 58.3933 53.269 55.8892L53.269 38.1255C53.269 35.8111 55.0031 33.9013 57.2427 33.6245L57.2456 33.6245C57.4251 33.6051 57.6088 33.5907 57.7964 33.5903L57.9976 33.5776C60.0614 33.3923 61.6297 31.7287 61.7456 29.6304C61.7453 29.6091 61.7446 29.5876 61.7446 29.5659C61.7446 26.7627 64.0176 24.4897 66.8208 24.4897C69.6239 24.4899 71.896 26.7628 71.896 29.5659C71.8963 31.6742 73.7573 33.4661 75.8315 33.6079C77.9049 33.4667 79.7688 31.6744 79.769 29.5659C79.769 26.7627 82.042 24.4897 84.8452 24.4897Z" stroke="url(#paint2_linear_66_28)" stroke-width="0.5"/>
<defs>
<radialGradient id="paint0_radial_66_28" cx="0" cy="0" r="1" gradientTransform="matrix(28.0929 24.276 -33.5044 28.3815 62.9396 32.0293)" gradientUnits="userSpaceOnUse">
<stop offset="0.248694" stop-color="#EE2700"/>
<stop offset="1" stop-color="#C81A20" stop-opacity="0"/>
</radialGradient>
<linearGradient id="paint1_linear_66_28" x1="70.7263" y1="33.4034" x2="92.1013" y2="63.3285" gradientUnits="userSpaceOnUse">
<stop stop-color="white" stop-opacity="0"/>
<stop offset="1" stop-color="#7FB1C1"/>
</linearGradient>
<linearGradient id="paint2_linear_66_28" x1="61.2263" y1="33.2666" x2="96.3228" y2="60.1734" gradientUnits="userSpaceOnUse">
<stop stop-color="white" stop-opacity="0.7"/>
<stop offset="0.398854" stop-color="white" stop-opacity="0"/>
<stop offset="1" stop-color="white" stop-opacity="0.2"/>
</linearGradient>
</defs>
</svg>
